<?xml version="1.0" encoding="iso-8859-1"?>
<!-- Generator: Adobe Illustrator 17.1.0, SVG Export Plug-In . SVG Version: 6.00 Build 0)  -->
<!DOCTYPE svg PUBLIC "-//W3C//DTD SVG 1.1//EN" "http://www.w3.org/Graphics/SVG/1.1/DTD/svg11.dtd">
<svg version="1.1" id="Layer_1" xmlns="http://www.w3.org/2000/svg" xmlns:xlink="http://www.w3.org/1999/xlink" x="0px" y="0px"
	 viewBox="0 0 128 128" style="enable-background:new 0 0 128 128;" xml:space="preserve">
<g>
	<path d="M32,24h0.333c3.314,0,6-2.686,6-6v-2V6c0-3.314-2.686-6-6-6H32c-3.314,0-6,2.686-6,6v10v2C26,21.314,28.686,24,32,24z"/>
	<path d="M94,24h0.333c3.314,0,6-2.686,6-6v-2V6c0-3.314-2.686-6-6-6H94c-3.314,0-6,2.686-6,6v10v2C88,21.314,90.686,24,94,24z"/>
	<path d="M112,16h-5.667v2c0,6.617-5.383,12-12,12H94c-6.617,0-12-5.383-12-12v-2H44.333v2c0,6.617-5.383,12-12,12H32
		c-6.617,0-12-5.383-12-12v-2h-4C7.164,16,0,23.164,0,32v80c0,8.836,7.164,16,16,16h96c8.836,0,16-7.164,16-16V32
		C128,23.164,120.836,16,112,16z M120,112c0,4.414-3.586,8-8,8H16c-4.41,0-8-3.586-8-8V48h112V112z"/>
	<circle cx="32" cy="68" r="9.834"/>
	<circle cx="64" cy="68" r="9.834"/>
	<circle cx="96" cy="68" r="9.834"/>
	<circle cx="32" cy="100" r="9.834"/>
	<circle cx="64" cy="100" r="9.834"/>
	<circle cx="96" cy="100" r="9.834"/>
</g>
</svg>
