<?xml version="1.0" encoding="iso-8859-1"?>
<!-- Generator: Adobe Illustrator 16.0.0, SVG Export Plug-In . SVG Version: 6.00 Build 0)  -->
<!DOCTYPE svg PUBLIC "-//W3C//DTD SVG 1.1//EN" "http://www.w3.org/Graphics/SVG/1.1/DTD/svg11.dtd">
<svg version="1.1" id="Capa_1" xmlns="http://www.w3.org/2000/svg" xmlns:xlink="http://www.w3.org/1999/xlink" x="0px" y="0px"
	 width="23.924px" height="35.219px" viewBox="0 0 23.924 35.219" style="enable-background:new 0 0 23.924 35.219;"
	 xml:space="preserve">
<path style="fill:#000000;" d="M11.964,0C5.357,0,0,5.321,0,11.885c0,3.358,3.294,9.374,3.294,9.374l8.229,13.96l8.586-13.797
	c0,0,3.814-5.74,3.814-9.537C23.924,5.321,18.568,0,11.964,0z M11.908,18.431c-3.784,0-6.849-3.065-6.849-6.853
	c0-3.783,3.064-6.846,6.849-6.846c3.782,0,6.85,3.063,6.85,6.846C18.758,15.366,15.69,18.431,11.908,18.431z"/>
<g>
</g>
<g>
</g>
<g>
</g>
<g>
</g>
<g>
</g>
<g>
</g>
<g>
</g>
<g>
</g>
<g>
</g>
<g>
</g>
<g>
</g>
<g>
</g>
<g>
</g>
<g>
</g>
<g>
</g>
</svg>
